<?xml version="1.0" encoding="UTF-8" standalone="no"?>
<svg
   xmlns:dc="http://purl.org/dc/elements/1.1/"
   xmlns:cc="http://creativecommons.org/ns#"
   xmlns:rdf="http://www.w3.org/1999/02/22-rdf-syntax-ns#"
   xmlns:svg="http://www.w3.org/2000/svg"
   xmlns="http://www.w3.org/2000/svg"
   id="svg955"
   viewBox="0, 0, 128, 128"
   height="128"
   width="128"
   y="0px"
   x="0px"
   version="1.1">
  <metadata
     id="metadata959">
    <rdf:RDF>
      <cc:Work
         rdf:about="">
        <dc:format>image/svg+xml</dc:format>
        <dc:type
           rdf:resource="http://purl.org/dc/dcmitype/StillImage" />
        <dc:title></dc:title>
      </cc:Work>
    </rdf:RDF>
  </metadata>
  <g
     id="Background">
    <rect
       id="rect938"
       fill-opacity="0"
       fill="#000000"
       height="128"
       width="128"
       y="0"
       x="0" />
  </g>
  <g
     id="g951">
    <path
       id="path941"
       fill="#737370"
       d="M18.092,6 L109.903,6 C116.552,6 122,11.441 122,18.096 L122,109.902 C122,116.559 116.552,122 109.903,122 L18.092,122 C11.436,122 6,116.559 6,109.902 L6,18.096 C6,11.441 11.436,6 18.092,6" />
    <g
       style="fill:#ebeded;fill-opacity:1"
       id="g1092"
       transform="matrix(0.2,0,0,0.2,13.548358,13.941015)">
      <g
         style="fill:#ebeded;fill-opacity:1"
         id="g1090">
        <path
           style="fill:#ebeded;fill-opacity:1"
           id="path1088"
           d="M 216.969,129.68 H 101.561 c -5.523,0 -10,4.477 -10,10 0,5.523 4.477,10 10,10 h 115.408 c 5.523,0 10,-4.477 10,-10 0,-5.523 -4.477,-10 -10,-10 z" />
      </g>
    </g>
    <g
       style="fill:#ebeded;fill-opacity:1"
       id="g1098"
       transform="matrix(0.2,0,0,0.2,13.548358,13.941015)">
      <g
         style="fill:#ebeded;fill-opacity:1"
         id="g1096">
        <path
           style="fill:#ebeded;fill-opacity:1"
           id="path1094"
           d="M 247.402,169.68 H 101.561 c -5.523,0 -10,4.477 -10,10 0,5.523 4.477,10 10,10 h 145.841 c 5.523,0 10,-4.477 10,-10 0,-5.523 -4.477,-10 -10,-10 z" />
      </g>
    </g>
    <g
       style="fill:#ebeded;fill-opacity:1"
       id="g1104"
       transform="matrix(0.2,0,0,0.2,13.548358,13.941015)">
      <g
         style="fill:#ebeded;fill-opacity:1"
         id="g1102">
        <path
           style="fill:#ebeded;fill-opacity:1"
           id="path1100"
           d="m 172.558,209.68 h -0.475 c -5.523,0 -10,4.477 -10,10 0,5.523 4.477,10 10,10 h 0.475 c 5.523,0 10,-4.477 10,-10 0,-5.523 -4.477,-10 -10,-10 z" />
      </g>
    </g>
    <g
       style="fill:#ebeded;fill-opacity:1"
       id="g1110"
       transform="matrix(0.2,0,0,0.2,13.548358,13.941015)">
      <g
         style="fill:#ebeded;fill-opacity:1"
         id="g1108">
        <path
           style="fill:#ebeded;fill-opacity:1"
           id="path1106"
           d="m 142.999,209.68 h -41.438 c -5.523,0 -10,4.477 -10,10 0,5.523 4.477,10 10,10 h 41.438 c 5.523,0 10,-4.477 10,-10 0,-5.523 -4.477,-10 -10,-10 z" />
      </g>
    </g>
    <g
       style="fill:#ebeded;fill-opacity:1"
       id="g1116"
       transform="matrix(0.2,0,0,0.2,13.548358,13.941015)">
      <g
         style="fill:#ebeded;fill-opacity:1"
         id="g1114">
        <path
           style="fill:#ebeded;fill-opacity:1"
           id="path1112"
           d="m 318.44,79.681 h -41.438 c -5.523,0 -10,4.477 -10,10 0,5.523 4.477,10 10,10 h 41.438 c 5.523,0 10,-4.477 10,-10 0,-5.523 -4.477,-10 -10,-10 z" />
      </g>
    </g>
    <g
       style="fill:#ebeded;fill-opacity:1"
       id="g1122"
       transform="matrix(0.2,0,0,0.2,13.548358,13.941015)">
      <g
         style="fill:#ebeded;fill-opacity:1"
         id="g1120">
        <path
           style="fill:#ebeded;fill-opacity:1"
           id="path1118"
           d="m 247.917,79.681 h -0.475 c -5.523,0 -10,4.477 -10,10 0,5.523 4.477,10 10,10 h 0.475 c 5.523,0 10,-4.477 10,-10 0,-5.523 -4.477,-10 -10,-10 z" />
      </g>
    </g>
    <g
       id="g1128"
       transform="matrix(0.2,0,0,0.2,13.548358,13.941015)">
      <g
         style="fill:#ebeded;fill-opacity:1"
         id="g1126">
        <path
           style="fill:#ebeded;fill-opacity:1"
           id="path1124"
           d="m 420.001,293.476 v -103.45 c 0,-0.037 -0.008,-0.072 -0.008,-0.109 -0.005,-0.431 -0.036,-0.86 -0.095,-1.287 -0.012,-0.082 -0.029,-0.162 -0.043,-0.244 -0.061,-0.37 -0.144,-0.737 -0.247,-1.099 -0.022,-0.078 -0.041,-0.156 -0.064,-0.232 -0.128,-0.413 -0.283,-0.817 -0.465,-1.213 -0.027,-0.058 -0.058,-0.113 -0.085,-0.171 -0.166,-0.342 -0.353,-0.675 -0.559,-0.999 -0.046,-0.072 -0.089,-0.145 -0.136,-0.215 -0.239,-0.355 -0.498,-0.7 -0.786,-1.028 -0.043,-0.049 -0.092,-0.093 -0.137,-0.142 -0.169,-0.186 -0.338,-0.371 -0.524,-0.546 l -40.54,-38.125 V 68.681 c 0,-16.542 -13.458,-30 -30,-30 H 263.669 L 231.449,8.379 C 219.58,-2.782 200.338,-2.783 188.554,8.377 L 156.562,38.681 H 73.688 c -16.542,0 -30,13.458 -30,30 v 76.824 L 3.235,182.662 c -0.588,0.54 -1.087,1.139 -1.515,1.772 -0.051,0.076 -0.1,0.152 -0.149,0.23 -0.222,0.349 -0.425,0.705 -0.6,1.073 -0.011,0.023 -0.023,0.044 -0.034,0.066 -0.185,0.397 -0.337,0.805 -0.467,1.219 -0.028,0.089 -0.053,0.18 -0.078,0.27 -0.107,0.377 -0.195,0.759 -0.257,1.145 -0.008,0.052 -0.021,0.102 -0.028,0.153 -0.062,0.429 -0.09,0.861 -0.096,1.294 C 0.01,189.932 0,189.978 0,190.026 v 219.995 c 0,0.006 0,0.011 0,0.016 0.006,16.537 13.461,29.989 30,29.989 h 268.783 c 15.513,41.968 55.927,71.968 103.219,71.968 60.654,0 110,-49.346 110,-109.999 0,-54.525 -39.879,-99.903 -92.001,-108.519 z m -43.69,-121.405 19.093,17.955 -19.093,17.956 z m 23.69,41.088 v 78.855 c -0.138,0.003 -0.275,0.01 -0.413,0.013 -0.47,0.009 -0.939,0.026 -1.407,0.042 -0.464,0.016 -0.929,0.031 -1.392,0.053 -0.474,0.023 -0.946,0.051 -1.419,0.079 -0.453,0.027 -0.907,0.054 -1.358,0.087 -0.48,0.035 -0.958,0.076 -1.436,0.116 -0.442,0.038 -0.883,0.075 -1.324,0.118 -0.482,0.047 -0.961,0.1 -1.442,0.153 -0.435,0.048 -0.87,0.096 -1.303,0.149 -0.482,0.059 -0.961,0.124 -1.441,0.189 -0.426,0.059 -0.853,0.116 -1.278,0.18 -0.485,0.072 -0.969,0.149 -1.452,0.228 -0.415,0.067 -0.831,0.135 -1.245,0.207 -0.488,0.085 -0.974,0.175 -1.46,0.267 -0.406,0.077 -0.812,0.153 -1.216,0.234 -0.49,0.098 -0.977,0.201 -1.465,0.305 -0.397,0.085 -0.794,0.17 -1.189,0.26 -0.489,0.11 -0.977,0.226 -1.464,0.343 -0.39,0.094 -0.779,0.188 -1.167,0.286 -0.489,0.123 -0.975,0.251 -1.461,0.381 -0.382,0.102 -0.765,0.205 -1.145,0.31 -0.489,0.136 -0.975,0.277 -1.461,0.419 -0.373,0.109 -0.746,0.22 -1.117,0.333 -0.488,0.149 -0.975,0.303 -1.461,0.458 -0.366,0.117 -0.731,0.235 -1.095,0.356 -0.486,0.161 -0.969,0.327 -1.452,0.495 -0.36,0.125 -0.719,0.251 -1.077,0.38 -0.483,0.173 -0.963,0.351 -1.442,0.531 -0.353,0.133 -0.706,0.266 -1.057,0.402 -0.48,0.187 -0.959,0.377 -1.437,0.57 -0.344,0.139 -0.687,0.279 -1.029,0.421 -0.479,0.2 -0.957,0.403 -1.433,0.609 -0.337,0.146 -0.673,0.293 -1.008,0.442 -0.475,0.211 -0.948,0.426 -1.419,0.644 -0.332,0.153 -0.662,0.308 -0.992,0.464 -0.471,0.223 -0.939,0.45 -1.407,0.679 -0.325,0.16 -0.648,0.321 -0.972,0.483 -0.465,0.235 -0.929,0.473 -1.391,0.714 -0.32,0.167 -0.639,0.335 -0.958,0.506 -0.46,0.246 -0.918,0.495 -1.374,0.747 -0.314,0.173 -0.627,0.349 -0.939,0.525 -0.455,0.258 -0.909,0.518 -1.36,0.782 -0.307,0.18 -0.613,0.361 -0.918,0.543 -0.45,0.269 -0.898,0.541 -1.344,0.816 -0.302,0.186 -0.604,0.375 -0.904,0.565 -0.442,0.279 -0.882,0.56 -1.32,0.846 -0.297,0.193 -0.593,0.389 -0.888,0.585 -0.437,0.29 -0.872,0.583 -1.304,0.879 -0.291,0.199 -0.579,0.4 -0.868,0.602 -0.43,0.301 -0.858,0.604 -1.284,0.911 -0.286,0.206 -0.57,0.414 -0.854,0.624 -0.421,0.31 -0.841,0.622 -1.258,0.938 -0.281,0.213 -0.56,0.428 -0.839,0.643 -0.415,0.32 -0.828,0.643 -1.238,0.969 -0.275,0.219 -0.548,0.44 -0.821,0.662 -0.392,0.318 -0.783,0.637 -1.17,0.96 L 310.987,296.871 Z M 202.308,22.897 c 4.154,-3.935 11.226,-3.912 15.438,0.051 L 234.475,38.68 H 185.646 Z M 63.688,68.681 c 0,-5.514 4.486,-10 10,-10 h 272.623 c 5.514,0 10,4.486 10,10 v 158.11 L 217.746,357.104 c -2.026,1.906 -4.781,2.955 -7.756,2.955 h -0.001 c -2.962,0 -5.699,-1.04 -7.707,-2.929 L 63.688,226.79 Z m -20,103.98 v 35.32 l -19,-17.868 z M 20,213.159 109.013,296.872 20,385.884 Z m 290.597,127.704 c -0.221,0.329 -0.438,0.662 -0.655,0.994 -0.263,0.401 -0.526,0.802 -0.784,1.207 -0.217,0.341 -0.429,0.685 -0.643,1.028 -0.25,0.402 -0.501,0.804 -0.746,1.209 -0.213,0.353 -0.42,0.709 -0.629,1.064 -0.236,0.402 -0.474,0.803 -0.706,1.207 -0.209,0.366 -0.414,0.737 -0.619,1.106 -0.223,0.399 -0.446,0.798 -0.664,1.2 -0.204,0.378 -0.402,0.759 -0.602,1.14 -0.211,0.4 -0.422,0.799 -0.628,1.203 -0.198,0.388 -0.389,0.779 -0.582,1.169 -0.198,0.4 -0.398,0.8 -0.592,1.204 -0.193,0.402 -0.379,0.808 -0.567,1.212 -0.184,0.397 -0.371,0.792 -0.55,1.191 -0.188,0.416 -0.368,0.836 -0.55,1.255 -0.171,0.394 -0.345,0.787 -0.512,1.183 -0.181,0.43 -0.355,0.864 -0.531,1.297 -0.158,0.389 -0.319,0.777 -0.472,1.168 -0.175,0.446 -0.343,0.896 -0.513,1.346 -0.145,0.383 -0.293,0.766 -0.433,1.151 -0.169,0.461 -0.328,0.926 -0.491,1.39 -0.132,0.378 -0.267,0.754 -0.396,1.134 -0.162,0.481 -0.316,0.966 -0.472,1.45 -0.118,0.367 -0.24,0.732 -0.354,1.101 -0.155,0.499 -0.3,1.001 -0.448,1.502 -0.106,0.36 -0.216,0.718 -0.318,1.08 -0.146,0.517 -0.284,1.038 -0.423,1.559 -0.093,0.349 -0.19,0.695 -0.28,1.045 -0.14,0.546 -0.271,1.097 -0.403,1.647 -0.079,0.327 -0.162,0.652 -0.237,0.98 -0.132,0.573 -0.254,1.149 -0.377,1.726 -0.066,0.311 -0.137,0.62 -0.201,0.932 -0.122,0.602 -0.235,1.208 -0.348,1.813 -0.054,0.289 -0.113,0.576 -0.164,0.865 -0.115,0.645 -0.219,1.294 -0.323,1.943 -0.041,0.253 -0.086,0.503 -0.124,0.757 -0.105,0.69 -0.199,1.383 -0.292,2.078 -0.029,0.216 -0.063,0.43 -0.09,0.647 -0.095,0.75 -0.179,1.504 -0.259,2.259 -0.018,0.162 -0.039,0.323 -0.055,0.485 -0.085,0.842 -0.16,1.688 -0.226,2.536 -0.006,0.076 -0.014,0.152 -0.02,0.229 -0.212,2.787 -0.322,5.602 -0.322,8.442 0,0.042 0.002,0.084 0.002,0.126 0.001,1.303 0.033,2.598 0.08,3.89 0.011,0.307 0.021,0.614 0.035,0.921 0.058,1.304 0.136,2.602 0.239,3.893 0.019,0.235 0.043,0.47 0.063,0.705 0.103,1.204 0.226,2.403 0.369,3.596 0.024,0.202 0.044,0.404 0.069,0.605 0.16,1.28 0.347,2.552 0.551,3.818 0.031,0.156 0.048,0.317 0.074,0.475 H 30 c -4.282,0 -7.933,-2.71 -9.356,-6.501 L 123.589,310.58 188.58,371.701 c 5.732,5.39 13.335,8.358 21.408,8.359 0.001,0 0.001,0 0.001,0 8.087,0 15.708,-2.979 21.458,-8.386 l 64.963,-61.095 21.083,21.083 c -0.213,0.256 -0.426,0.513 -0.637,0.771 -0.239,0.291 -0.474,0.586 -0.709,0.879 -0.311,0.388 -0.622,0.776 -0.928,1.168 -0.235,0.301 -0.466,0.606 -0.698,0.91 -0.299,0.392 -0.598,0.784 -0.893,1.18 -0.23,0.31 -0.456,0.624 -0.684,0.937 -0.287,0.395 -0.574,0.79 -0.855,1.189 -0.226,0.32 -0.448,0.644 -0.671,0.967 -0.275,0.399 -0.551,0.797 -0.821,1.2 z m 91.405,151.132 c -42.405,0 -78.049,-29.482 -87.525,-69.024 -0.088,-0.37 -0.177,-0.74 -0.26,-1.11 -0.107,-0.476 -0.212,-0.952 -0.312,-1.43 -0.118,-0.566 -0.229,-1.134 -0.335,-1.702 -0.092,-0.487 -0.181,-0.976 -0.265,-1.466 -0.116,-0.676 -0.226,-1.353 -0.326,-2.032 -0.051,-0.348 -0.099,-0.697 -0.147,-1.047 -0.09,-0.663 -0.172,-1.327 -0.247,-1.992 -0.031,-0.272 -0.065,-0.543 -0.094,-0.816 -0.094,-0.907 -0.174,-1.817 -0.241,-2.728 -0.02,-0.267 -0.034,-0.536 -0.051,-0.804 -0.045,-0.701 -0.083,-1.402 -0.111,-2.105 -0.013,-0.306 -0.026,-0.612 -0.035,-0.918 -0.027,-0.874 -0.044,-1.75 -0.046,-2.626 0,-0.067 -0.002,-0.133 -0.002,-0.2 0,-49.626 40.374,-90 89.999,-90 1.081,0 2.176,0.026 3.272,0.066 0.196,0.007 0.392,0.014 0.588,0.022 1.097,0.047 2.198,0.11 3.295,0.196 46.294,3.659 82.845,42.498 82.845,89.716 -0.002,49.626 -40.376,90 -90.002,90 z" />
      </g>
    </g>
    <g
       style="fill:#ebeded;fill-opacity:1"
       id="g1134"
       transform="matrix(0.2,0,0,0.2,13.548358,13.941015)">
      <g
         style="fill:#ebeded;fill-opacity:1"
         id="g1132">
        <path
           style="fill:#ebeded;fill-opacity:1"
           id="path1130"
           d="m 439.749,393.462 v -13.968 c 0,-17.92 -14.579,-32.499 -32.499,-32.499 h -10.496 c -17.92,0 -32.5,14.579 -32.5,32.499 v 13.968 c -7.178,2.939 -12.252,9.992 -12.252,18.216 v 25.634 c 0,10.853 8.83,19.683 19.684,19.683 h 60.633 c 10.853,0 19.684,-8.83 19.684,-19.683 v -25.634 c -10e-4,-8.224 -5.075,-15.277 -12.254,-18.216 z m -55.495,-13.967 c 0,-6.892 5.608,-12.499 12.5,-12.499 h 10.496 c 6.892,0 12.499,5.607 12.499,12.499 v 12.501 h -35.495 z m 47.748,57.5 h -60 v -25 h 2.252 55.495 2.253 z" />
      </g>
    </g>
  </g>
  <defs
     id="defs953" />
</svg>
